<mxfile modified="2021-05-24T00:09:00.967Z" host="app.diagrams.net" agent="5.0 (Windows NT 10.0; Win64; x64) AppleWebKit/537.36 (KHTML, like Gecko) Chrome/90.0.4430.212 Safari/537.36" etag="k4NR4RK6sWgo-FcmdPdz" version="14.7.0" type="github">
  <diagram id="Ht1M8jgEwFfnCIfOTk4-" name="Page-1">
    <mxGraphModel dx="1422" dy="705" grid="1" gridSize="10" guides="1" tooltips="1" connect="1" arrows="1" fold="1" page="1" pageScale="1" pageWidth="1169" pageHeight="827" math="0" shadow="0">
      <root>
        <mxCell id="0" />
        <mxCell id="1" parent="0" />
        <mxCell id="VSQY3llkJmidVzDZMjr1-1" value="Работа с коментариями + Лайки" style="fillColor=none;strokeColor=#5A6C86;dashed=1;verticalAlign=top;fontStyle=0;fontColor=#5A6C86;" vertex="1" parent="1">
          <mxGeometry x="80" y="40" width="260" height="250" as="geometry" />
        </mxCell>
        <mxCell id="VSQY3llkJmidVzDZMjr1-23" style="edgeStyle=orthogonalEdgeStyle;rounded=0;orthogonalLoop=1;jettySize=auto;html=1;" edge="1" parent="1" source="VSQY3llkJmidVzDZMjr1-3" target="VSQY3llkJmidVzDZMjr1-12">
          <mxGeometry relative="1" as="geometry" />
        </mxCell>
        <mxCell id="VSQY3llkJmidVzDZMjr1-3" value="" style="outlineConnect=0;fontColor=#232F3E;gradientColor=none;fillColor=#3334B9;strokeColor=none;dashed=0;verticalLabelPosition=bottom;verticalAlign=top;align=center;html=1;fontSize=12;fontStyle=0;aspect=fixed;pointerEvents=1;shape=mxgraph.aws4.rds_postgresql_instance;" vertex="1" parent="1">
          <mxGeometry x="100" y="70" width="78" height="78" as="geometry" />
        </mxCell>
        <mxCell id="VSQY3llkJmidVzDZMjr1-4" value="" style="outlineConnect=0;fontColor=#232F3E;gradientColor=none;fillColor=#232F3E;strokeColor=none;dashed=0;verticalLabelPosition=bottom;verticalAlign=top;align=center;html=1;fontSize=12;fontStyle=0;aspect=fixed;pointerEvents=1;shape=mxgraph.aws4.user;" vertex="1" parent="1">
          <mxGeometry x="120" y="414" width="78" height="78" as="geometry" />
        </mxCell>
        <mxCell id="VSQY3llkJmidVzDZMjr1-15" style="edgeStyle=orthogonalEdgeStyle;rounded=0;orthogonalLoop=1;jettySize=auto;html=1;" edge="1" parent="1" target="VSQY3llkJmidVzDZMjr1-11">
          <mxGeometry relative="1" as="geometry">
            <mxPoint x="420" y="420" as="sourcePoint" />
          </mxGeometry>
        </mxCell>
        <mxCell id="VSQY3llkJmidVzDZMjr1-31" style="edgeStyle=orthogonalEdgeStyle;rounded=0;orthogonalLoop=1;jettySize=auto;html=1;entryX=0;entryY=0.5;entryDx=0;entryDy=0;" edge="1" parent="1" source="VSQY3llkJmidVzDZMjr1-5" target="VSQY3llkJmidVzDZMjr1-24">
          <mxGeometry relative="1" as="geometry">
            <Array as="points">
              <mxPoint x="420" y="462" />
              <mxPoint x="420" y="409" />
            </Array>
          </mxGeometry>
        </mxCell>
        <mxCell id="VSQY3llkJmidVzDZMjr1-5" value="" style="shape=image;html=1;verticalAlign=top;verticalLabelPosition=bottom;labelBackgroundColor=#ffffff;imageAspect=0;aspect=fixed;image=https://cdn4.iconfinder.com/data/icons/logos-brands-5/24/nginx-128.png" vertex="1" parent="1">
          <mxGeometry x="230" y="432" width="60" height="60" as="geometry" />
        </mxCell>
        <mxCell id="VSQY3llkJmidVzDZMjr1-10" style="edgeStyle=orthogonalEdgeStyle;rounded=0;orthogonalLoop=1;jettySize=auto;html=1;exitX=0.5;exitY=0;exitDx=0;exitDy=0;exitPerimeter=0;" edge="1" parent="1" source="VSQY3llkJmidVzDZMjr1-6" target="VSQY3llkJmidVzDZMjr1-3">
          <mxGeometry relative="1" as="geometry" />
        </mxCell>
        <mxCell id="VSQY3llkJmidVzDZMjr1-6" value="" style="html=1;dashed=0;whitespace=wrap;fillColor=#2875E2;strokeColor=#ffffff;points=[[0.005,0.63,0],[0.1,0.2,0],[0.9,0.2,0],[0.5,0,0],[0.995,0.63,0],[0.72,0.99,0],[0.5,1,0],[0.28,0.99,0]];shape=mxgraph.kubernetes.icon;prIcon=api" vertex="1" parent="1">
          <mxGeometry x="230" y="210" width="50" height="48" as="geometry" />
        </mxCell>
        <mxCell id="VSQY3llkJmidVzDZMjr1-8" value="" style="endArrow=classic;html=1;exitX=0.5;exitY=0;exitDx=0;exitDy=0;entryX=0.5;entryY=1;entryDx=0;entryDy=0;entryPerimeter=0;" edge="1" parent="1" source="VSQY3llkJmidVzDZMjr1-5" target="VSQY3llkJmidVzDZMjr1-6">
          <mxGeometry width="50" height="50" relative="1" as="geometry">
            <mxPoint x="610" y="220" as="sourcePoint" />
            <mxPoint x="660" y="170" as="targetPoint" />
          </mxGeometry>
        </mxCell>
        <mxCell id="VSQY3llkJmidVzDZMjr1-11" value="Профиль пользователя" style="fillColor=none;strokeColor=#5A6C86;dashed=1;verticalAlign=top;fontStyle=0;fontColor=#5A6C86;" vertex="1" parent="1">
          <mxGeometry x="380" y="40" width="260" height="250" as="geometry" />
        </mxCell>
        <mxCell id="VSQY3llkJmidVzDZMjr1-20" style="edgeStyle=orthogonalEdgeStyle;rounded=0;orthogonalLoop=1;jettySize=auto;html=1;exitX=0.5;exitY=1;exitDx=0;exitDy=0;" edge="1" parent="1" source="VSQY3llkJmidVzDZMjr1-12" target="VSQY3llkJmidVzDZMjr1-16">
          <mxGeometry relative="1" as="geometry" />
        </mxCell>
        <UserObject label="Django Profile" treeRoot="1" id="VSQY3llkJmidVzDZMjr1-12">
          <mxCell style="whiteSpace=wrap;html=1;align=center;treeFolding=1;treeMoving=1;newEdgeStyle={&quot;edgeStyle&quot;:&quot;elbowEdgeStyle&quot;,&quot;startArrow&quot;:&quot;none&quot;,&quot;endArrow&quot;:&quot;none&quot;};" vertex="1" parent="1">
            <mxGeometry x="510" y="79" width="110" height="41" as="geometry" />
          </mxCell>
        </UserObject>
        <mxCell id="VSQY3llkJmidVzDZMjr1-18" style="edgeStyle=orthogonalEdgeStyle;rounded=0;orthogonalLoop=1;jettySize=auto;html=1;exitX=0.5;exitY=0;exitDx=0;exitDy=0;exitPerimeter=0;entryX=0;entryY=0.5;entryDx=0;entryDy=0;entryPerimeter=0;" edge="1" parent="1" source="VSQY3llkJmidVzDZMjr1-13" target="VSQY3llkJmidVzDZMjr1-16">
          <mxGeometry relative="1" as="geometry" />
        </mxCell>
        <mxCell id="VSQY3llkJmidVzDZMjr1-13" value="" style="html=1;dashed=0;whitespace=wrap;fillColor=#2875E2;strokeColor=#ffffff;points=[[0.005,0.63,0],[0.1,0.2,0],[0.9,0.2,0],[0.5,0,0],[0.995,0.63,0],[0.72,0.99,0],[0.5,1,0],[0.28,0.99,0]];shape=mxgraph.kubernetes.icon;prIcon=api" vertex="1" parent="1">
          <mxGeometry x="420" y="210" width="50" height="48" as="geometry" />
        </mxCell>
        <mxCell id="VSQY3llkJmidVzDZMjr1-16" value="" style="points=[[0,0,0],[0.25,0,0],[0.5,0,0],[0.75,0,0],[1,0,0],[0,1,0],[0.25,1,0],[0.5,1,0],[0.75,1,0],[1,1,0],[0,0.25,0],[0,0.5,0],[0,0.75,0],[1,0.25,0],[1,0.5,0],[1,0.75,0]];outlineConnect=0;fontColor=#232F3E;gradientColor=#60A337;gradientDirection=north;fillColor=#277116;strokeColor=#ffffff;dashed=0;verticalLabelPosition=bottom;verticalAlign=top;align=center;html=1;fontSize=12;fontStyle=0;aspect=fixed;shape=mxgraph.aws4.resourceIcon;resIcon=mxgraph.aws4.s3;" vertex="1" parent="1">
          <mxGeometry x="490" y="148" width="40" height="40" as="geometry" />
        </mxCell>
        <mxCell id="VSQY3llkJmidVzDZMjr1-24" value="Логирование и мониторинг" style="fillColor=none;strokeColor=#5A6C86;dashed=1;verticalAlign=top;fontStyle=0;fontColor=#5A6C86;" vertex="1" parent="1">
          <mxGeometry x="540" y="337" width="260" height="143" as="geometry" />
        </mxCell>
        <mxCell id="VSQY3llkJmidVzDZMjr1-25" value="Promethus" style="text;html=1;strokeColor=none;fillColor=none;align=center;verticalAlign=middle;whiteSpace=wrap;rounded=0;" vertex="1" parent="1">
          <mxGeometry x="560" y="360" width="100" height="20" as="geometry" />
        </mxCell>
        <mxCell id="VSQY3llkJmidVzDZMjr1-26" value="ELK" style="text;html=1;strokeColor=none;fillColor=none;align=center;verticalAlign=middle;whiteSpace=wrap;rounded=0;" vertex="1" parent="1">
          <mxGeometry x="560" y="380" width="100" height="20" as="geometry" />
        </mxCell>
        <mxCell id="VSQY3llkJmidVzDZMjr1-27" value="Portainer&lt;br&gt;" style="text;html=1;strokeColor=none;fillColor=none;align=center;verticalAlign=middle;whiteSpace=wrap;rounded=0;" vertex="1" parent="1">
          <mxGeometry x="560" y="432" width="100" height="20" as="geometry" />
        </mxCell>
        <mxCell id="VSQY3llkJmidVzDZMjr1-28" value="Sentry" style="text;html=1;strokeColor=none;fillColor=none;align=center;verticalAlign=middle;whiteSpace=wrap;rounded=0;" vertex="1" parent="1">
          <mxGeometry x="560" y="404" width="100" height="20" as="geometry" />
        </mxCell>
      </root>
    </mxGraphModel>
  </diagram>
</mxfile>
